<svg width="170" height="49" viewBox="0 0 170 49" fill="none" xmlns="http://www.w3.org/2000/svg">
<path d="M8.74975 0.167813C5.26989 1.62544 1.44494 5.73819 0.236803 10.9045C-1.29344 17.4482 5.07337 20.2162 5.596 19.3099C6.21056 18.2436 4.45514 17.8832 4.09373 14.4876C3.62673 10.1021 5.66561 5.2019 8.23179 3.05177C8.70812 2.65205 8.6858 3.20832 8.6858 4.23659C8.6858 6.07562 8.58421 22.5852 8.58421 26.0308C8.58421 30.6928 8.39168 32.1651 8.04559 33.6201C7.6955 35.094 7.1319 36.0903 7.5586 36.474C8.0356 36.9031 10.0721 35.8821 11.251 34.2369C12.6646 32.2637 13.1596 29.8934 13.2486 27.3202C13.3558 24.2177 13.3512 19.2946 13.3558 16.4866C13.3598 13.9114 13.3991 6.37041 13.3105 1.83696C13.2889 0.724418 10.2051 -0.442087 8.74975 0.167813ZM132.31 21.9866C132.197 24.4106 131.661 26.3049 130.995 27.6413C129.706 30.2285 127.031 31.0316 125.895 27.3129C125.276 25.2856 125.247 21.9 125.692 19.0711C126.145 16.1894 127.41 14.013 129.504 14.2092C131.57 14.4034 132.537 17.0648 132.31 21.9866ZM97.4844 37.025C97.4564 41.0521 96.8225 44.5829 95.4635 45.6089C93.5355 47.0632 90.9444 45.9719 91.481 43.0334C91.9556 40.4329 94.201 37.7771 97.49 34.5321C97.49 34.5321 97.4967 35.2722 97.4844 37.025ZM96.9581 21.9633C96.8402 24.1711 96.2679 26.3885 95.6434 27.6416C94.3543 30.2288 91.6602 31.0376 90.5436 27.3132C89.7802 24.7683 89.963 21.4753 90.3404 19.4002C90.8308 16.7077 92.0193 14.2098 94.1527 14.2098C96.2273 14.2098 97.2505 16.4859 96.9581 21.9633ZM76.7841 21.93C76.6575 24.2677 76.2015 26.222 75.4697 27.6416C74.1453 30.2111 71.5252 31.0259 70.37 27.3132C69.5369 24.6361 69.8204 20.986 70.1668 19.0141C70.6811 16.0878 71.9688 14.0133 73.9791 14.2098C76.0439 14.4117 77.0476 17.0655 76.7841 21.93ZM169.236 24.6607C168.731 24.6607 168.501 25.181 168.31 26.0564C167.65 29.1023 166.954 29.7894 166.059 29.7894C165.058 29.7894 164.158 28.2818 163.927 25.2633C163.745 22.8897 163.775 18.5201 164.007 14.1735C164.054 13.2805 163.808 12.3968 161.413 11.5267C160.382 11.1523 158.884 10.6011 158.138 12.4018C156.03 17.4895 155.205 21.5286 155.011 23.1688C155.001 23.2537 154.897 23.2714 154.879 23.0729C154.755 21.7588 154.479 19.3705 154.444 14.3534C154.438 13.3744 154.23 12.5414 153.15 11.8592C152.449 11.4162 150.32 10.6334 149.553 11.5651C148.889 12.3265 148.12 14.3764 147.321 16.8067C146.671 18.7819 146.219 20.1176 146.219 20.1176C146.219 20.1176 146.227 14.7888 146.235 12.7672C146.238 12.0047 145.715 11.7506 145.558 11.7046C144.848 11.4988 143.449 11.1547 142.855 11.1547C142.123 11.1547 141.943 11.5637 141.943 12.1606C141.943 12.2389 141.828 19.1766 141.828 24.0279C141.828 24.2387 141.828 24.4686 141.829 24.713C141.424 26.9428 140.11 29.9693 138.681 29.9693C137.25 29.9693 136.575 28.7042 136.575 22.9207C136.575 19.5467 136.676 18.0794 136.726 15.6392C136.755 14.2335 136.811 13.1543 136.807 12.9094C136.797 12.1583 135.498 11.7796 134.894 11.6397C134.287 11.4988 133.759 11.4438 133.347 11.4675C132.764 11.5008 132.351 11.8828 132.351 12.4091C132.351 12.6916 132.354 13.2279 132.354 13.2279C131.603 12.0474 130.395 11.226 129.591 10.9878C127.426 10.3449 125.167 10.9145 123.463 13.2992C122.109 15.1935 121.292 17.3396 120.971 20.4224C120.736 22.6765 120.812 24.9619 121.23 26.8948C120.726 29.0759 119.789 29.9693 118.764 29.9693C117.275 29.9693 116.195 27.5397 116.321 23.3367C116.403 20.5723 116.957 18.6324 117.561 15.8257C117.819 14.6292 117.609 14.003 117.084 13.4027C116.602 12.8521 115.575 12.5707 114.1 12.9164C113.048 13.1632 111.545 13.4287 110.17 13.6326C110.17 13.6326 110.253 13.3012 110.321 12.7176C110.679 9.65641 107.352 9.90456 106.29 10.8822C105.657 11.4661 105.226 12.1546 105.062 13.3924C104.803 15.357 106.405 16.2837 106.405 16.2837C105.879 18.69 104.591 21.8331 103.26 24.1058C102.548 25.3233 102.003 26.2256 101.299 27.1846C101.276 23.3361 101.301 19.4874 101.374 15.6395C101.403 14.2338 101.46 13.1832 101.457 12.9381C101.449 12.3891 101.128 12.1813 100.461 11.9188C99.8703 11.6863 99.1728 11.5257 98.449 11.4691C97.5357 11.3985 96.9854 11.8825 97.0001 12.4554C97.0027 12.5637 97.0027 13.2279 97.0027 13.2279C96.2516 12.0474 95.0434 11.226 94.2397 10.9878C92.0745 10.3449 89.8155 10.9145 88.1114 13.2992C86.7573 15.1935 85.8706 17.8523 85.6191 20.3991C85.3853 22.7724 85.4283 24.7893 85.7474 26.4888C85.4033 28.1902 84.4133 29.9696 83.2945 29.9696C81.8635 29.9696 81.0494 28.7042 81.0494 22.9207C81.0494 19.5467 81.1507 18.0794 81.2006 15.6392C81.2296 14.2338 81.2852 13.1543 81.2822 12.9094C81.2716 12.1583 79.9728 11.7799 79.3682 11.6397C78.736 11.4931 78.1901 11.4398 77.7707 11.4708C77.2178 11.5118 76.8287 12.0071 76.8287 12.3765V13.2279C76.0776 12.0474 74.8695 11.226 74.0657 10.9878C71.9006 10.3449 69.6542 10.9238 67.9374 13.2992C66.8182 14.8477 65.9118 16.5645 65.4455 20.3651C65.3106 21.4634 65.2509 22.4923 65.2589 23.4533C64.8126 26.1833 62.8407 29.3298 61.2281 29.3298C60.2845 29.3298 59.3854 27.4991 59.3854 23.5982C59.3854 18.4019 59.7072 11.0031 59.7618 10.2903C59.7618 10.2903 61.7994 10.2556 62.1938 10.251C63.2104 10.2397 64.1307 10.264 65.4848 10.1944C66.1636 10.16 66.8178 7.72278 66.117 7.42133C65.7992 7.28476 63.5545 7.16551 62.6644 7.14652C61.9163 7.12987 59.8331 6.97531 59.8331 6.97531C59.8331 6.97531 60.02 2.06447 60.0636 1.54583C60.1003 1.11314 59.5407 0.890633 59.2202 0.755729C58.4401 0.425963 57.7423 0.267742 56.9152 0.0971969C55.772 -0.138636 55.2537 0.0922003 55.1525 1.05652C54.9999 2.52048 54.921 6.80843 54.921 6.80843C54.0822 6.80843 51.2169 6.64455 50.3782 6.64455C49.5987 6.64455 48.7573 9.99683 49.8352 10.0381C51.075 10.0861 53.2358 10.1281 54.6681 10.1707C54.6681 10.1707 54.6042 17.6914 54.6042 20.0137C54.6044 20.2602 54.6053 20.4987 54.6068 20.7292C53.8184 24.838 51.0417 27.0577 51.0417 27.0577C51.638 24.3393 50.4198 22.2978 48.2257 20.5697C47.4173 19.9331 45.8214 18.7276 44.036 17.4066C44.036 17.4066 45.07 16.3873 45.9873 14.3367C46.6368 12.8838 46.6652 11.222 45.07 10.8552C42.4345 10.249 40.2617 12.1846 39.6135 14.2511C39.1112 15.852 39.379 17.0395 40.363 18.2733C40.4346 18.3636 40.5129 18.4558 40.5928 18.5484C39.9982 19.6949 39.1808 21.2388 38.4886 22.436C36.5673 25.7603 35.116 28.3891 34.0191 28.3891C33.1424 28.3891 33.1541 25.7197 33.1541 23.2204C33.1541 21.066 33.3133 17.8266 33.4405 14.4733C33.4825 13.3641 32.9276 12.7322 31.9982 12.16C31.4333 11.8122 30.2278 11.1287 29.5297 11.1287C28.4844 11.1287 25.4692 11.2709 22.6206 19.5117C22.2615 20.5503 21.556 22.443 21.556 22.443L21.6169 12.533C21.6169 12.3005 21.493 12.076 21.2096 11.9225C20.7296 11.6617 19.4475 11.1287 18.3073 11.1287C17.7644 11.1289 17.4929 11.381 17.4929 11.8848L17.3936 27.3891C17.3936 28.5673 17.4243 29.9417 17.5408 30.5426C17.6568 31.1441 17.845 31.6338 18.0775 31.9249C18.3103 32.2157 18.5791 32.4379 19.0225 32.5292C19.4352 32.6141 21.6949 32.9042 21.8125 32.0408C21.953 31.0056 21.9587 29.8864 23.1452 25.7113C24.9925 19.211 27.4008 16.0399 28.5334 14.9133C28.7316 14.7168 28.9574 14.7048 28.9464 15.0269C28.8984 16.4519 28.7282 20.0134 28.614 23.0379C28.3072 31.1338 29.7798 32.6344 31.8847 32.6344C33.4948 32.6344 35.7646 31.0346 38.1975 26.9848C39.5531 24.7279 40.9025 22.4673 42.2456 20.2029C42.9828 20.8854 43.8105 21.6199 44.6373 22.4047C46.5592 24.2287 47.1901 25.9622 46.7714 27.6063C46.4516 28.8631 45.2455 30.1585 43.0993 28.8997C42.4738 28.5323 42.2067 28.2482 41.5778 27.8342C41.24 27.612 40.724 27.5454 40.4146 27.7785C39.6112 28.3841 39.1515 29.1549 38.889 30.1089C38.6339 31.0372 39.5635 31.5279 40.5275 31.9572C41.3573 32.3266 43.141 32.6614 44.2782 32.6994C48.71 32.8476 52.2605 30.5596 54.7321 24.6574C55.1744 29.7548 57.0571 32.6391 60.3284 32.6391C62.5156 32.6391 64.7083 29.8121 65.6673 27.0311C65.9425 28.1646 66.3502 29.1506 66.8765 29.9843C69.397 33.9781 74.2869 33.1187 76.7431 29.7271C77.5026 28.6792 77.6182 28.3028 77.6182 28.3028C77.9766 31.5049 80.5554 32.6238 82.0317 32.6238C83.6855 32.6238 85.3926 31.842 86.5895 29.1479C86.7294 29.4408 86.8829 29.7196 87.0501 29.9843C89.5707 33.9781 94.4609 33.1187 96.9171 29.7271C97.0326 29.5682 97.134 29.4238 97.2212 29.2941L97.2932 31.3976L95.0318 33.4718C91.2412 36.946 88.3619 39.5808 88.15 42.6496C87.8802 46.5625 91.0519 48.0168 93.4549 48.2074C96.0021 48.4095 98.1875 47.0012 99.5286 45.0303C100.709 43.2952 101.482 39.5612 101.425 35.8735C101.403 34.3965 101.365 32.5188 101.336 30.5059C102.667 28.9607 104.166 27.0074 105.546 24.7217C107.051 22.2305 108.663 18.8849 109.488 16.281C109.488 16.281 110.889 16.2934 112.384 16.1954C112.862 16.1641 112.999 16.262 112.911 16.6121C112.804 17.0358 111.022 23.9086 112.649 28.487C113.761 31.6215 116.271 32.6294 117.758 32.6294C119.5 32.6294 121.166 31.3144 122.059 29.3617C122.167 29.5793 122.279 29.7898 122.402 29.9846C124.922 33.9785 129.795 33.1134 132.269 29.7271C132.827 28.963 133.144 28.3028 133.144 28.3028C133.674 31.6171 136.252 32.6407 137.728 32.6407C139.266 32.6407 140.725 32.0102 141.909 29.2085C141.959 30.4423 142.037 31.4509 142.16 31.7687C142.235 31.9636 142.672 32.2074 142.989 32.3253C144.396 32.8469 145.831 32.6004 146.362 32.4932C146.729 32.4186 147.016 32.1234 147.055 31.362C147.159 29.3617 147.095 26.0011 147.702 23.5032C148.719 19.3119 149.669 17.686 150.119 16.8813C150.371 16.4299 150.656 16.3556 150.666 16.833C150.687 17.799 150.735 20.6346 151.13 24.4452C151.419 27.2472 151.806 28.9037 152.103 29.4284C152.952 30.9273 154 30.9982 154.853 30.9982C155.396 30.9982 156.531 30.8484 156.429 29.8944C156.38 29.4294 156.466 26.5554 157.47 22.426C158.125 19.7293 159.218 17.293 159.612 16.4019C159.757 16.0735 159.825 16.3323 159.822 16.383C159.739 18.24 159.553 24.3143 160.31 27.6366C161.336 32.1371 164.302 32.6407 165.336 32.6407C167.543 32.6407 169.348 30.9619 169.956 26.5444C170.103 25.4812 169.886 24.6607 169.236 24.6607Z" fill="black"/>
</svg>
