<svg width="141" height="40" viewBox="0 0 141 40" fill="none" xmlns="http://www.w3.org/2000/svg">
<path d="M7.25719 0.139187C4.37094 1.34817 1.19846 4.75935 0.196408 9.04439C-1.0728 14.4718 4.20794 16.7677 4.64141 16.0159C5.15114 15.1316 3.69517 14.8327 3.39541 12.0163C3.00807 8.37884 4.69915 4.31455 6.82758 2.53119C7.22266 2.19965 7.20415 2.66103 7.20415 3.5139C7.20415 5.03922 7.11988 18.7326 7.11988 21.5904C7.11988 25.4571 6.9602 26.6783 6.67315 27.885C6.38278 29.1076 5.91532 29.9339 6.26923 30.2522C6.66486 30.608 8.35401 29.7612 9.33175 28.3967C10.5043 26.76 10.9148 24.7941 10.9886 22.6598C11.0775 20.0866 11.0737 16.0032 11.0775 13.6742C11.0809 11.5383 11.1135 5.28372 11.04 1.52361C11.022 0.600844 8.46424 -0.366674 7.25719 0.139187ZM109.74 18.2361C109.647 20.2466 109.202 21.8177 108.649 22.9262C107.58 25.072 105.362 25.7381 104.42 22.6537C103.906 20.9723 103.882 18.1643 104.251 15.8179C104.627 13.4278 105.676 11.6226 107.413 11.7853C109.127 11.9464 109.929 14.1538 109.74 18.2361ZM80.8552 30.7091C80.832 34.0493 80.3062 36.9778 79.179 37.8288C77.5799 39.035 75.4308 38.1299 75.8759 35.6926C76.2696 33.5357 78.1319 31.333 80.8599 28.6415C80.8599 28.6415 80.8654 29.2554 80.8552 30.7091ZM80.4187 18.2168C80.3209 20.0479 79.8462 21.8871 79.3282 22.9264C78.259 25.0723 76.0245 25.7431 75.0984 22.654C74.4652 20.5433 74.6169 17.812 74.9299 16.0908C75.3366 13.8577 76.3223 11.7859 78.0919 11.7859C79.8125 11.7859 80.6612 13.6737 80.4187 18.2168ZM63.686 18.1891C63.581 20.128 63.2028 21.7489 62.5958 22.9264C61.4974 25.0576 59.3242 25.7334 58.366 22.654C57.6751 20.4336 57.9102 17.4062 58.1975 15.7706C58.6241 13.3435 59.6922 11.6229 61.3595 11.7859C63.0721 11.9533 63.9045 14.1544 63.686 18.1891ZM140.367 20.454C139.949 20.454 139.757 20.8856 139.599 21.6116C139.051 24.1379 138.475 24.7079 137.732 24.7079C136.902 24.7079 136.156 23.4574 135.964 20.9538C135.813 18.9851 135.837 15.3609 136.03 11.7558C136.069 11.0151 135.865 10.2821 133.878 9.56048C133.024 9.24994 131.781 8.7927 131.162 10.2863C129.414 14.5061 128.73 17.8562 128.569 19.2166C128.561 19.287 128.474 19.3017 128.459 19.137C128.356 18.0471 128.127 16.0662 128.099 11.905C128.093 11.093 127.921 10.402 127.025 9.8362C126.443 9.46875 124.678 8.8195 124.042 9.59225C123.491 10.2238 122.853 11.924 122.19 13.9397C121.651 15.578 121.276 16.6859 121.276 16.6859C121.276 16.6859 121.283 12.266 121.29 10.5893C121.293 9.95693 120.859 9.74613 120.728 9.70801C120.139 9.53727 118.979 9.25188 118.487 9.25188C117.879 9.25188 117.73 9.59114 117.73 10.0862C117.73 10.1512 117.634 15.9054 117.634 19.9291C117.634 20.104 117.634 20.2946 117.635 20.4974C117.299 22.3468 116.209 24.8571 115.024 24.8571C113.837 24.8571 113.278 23.8078 113.278 19.0108C113.278 16.2124 113.362 14.9954 113.403 12.9714C113.427 11.8055 113.473 10.9104 113.47 10.7073C113.462 10.0843 112.385 9.77017 111.883 9.65413C111.38 9.53727 110.942 9.49168 110.6 9.5113C110.116 9.53893 109.774 9.85581 109.774 10.2923C109.774 10.5266 109.777 10.9714 109.777 10.9714C109.154 9.9923 108.152 9.311 107.485 9.11346C105.689 8.58025 103.816 9.05268 102.402 11.0305C101.279 12.6017 100.602 14.3818 100.335 16.9387C100.14 18.8083 100.204 20.7038 100.55 22.307C100.132 24.1161 99.3552 24.8571 98.5045 24.8571C97.2696 24.8571 96.3744 22.8419 96.4783 19.3558C96.5468 17.063 97.0057 15.454 97.5072 13.1261C97.721 12.1337 97.5472 11.6143 97.1115 11.1165C96.7118 10.6598 95.86 10.4263 94.6361 10.7131C93.7642 10.9178 92.5173 11.138 91.3766 11.3071C91.3766 11.3071 91.4457 11.0322 91.502 10.5482C91.7987 8.00919 89.0396 8.21501 88.1591 9.02588C87.6339 9.51019 87.2761 10.0813 87.1405 11.1079C86.925 12.7374 88.2538 13.506 88.2538 13.506C87.8182 15.5018 86.7492 18.1087 85.6458 19.9938C85.0548 21.0036 84.6029 21.752 84.0191 22.5474C84 19.3553 84.0209 16.1632 84.0815 12.9717C84.1056 11.8058 84.1523 10.9344 84.1498 10.7311C84.1431 10.2758 83.8771 10.1034 83.3237 9.88565C82.8341 9.69281 82.2556 9.55965 81.6553 9.51268C80.8977 9.45411 80.4413 9.85554 80.4535 10.3307C80.4557 10.4205 80.4557 10.9714 80.4557 10.9714C79.8327 9.9923 78.8306 9.311 78.164 9.11346C76.3682 8.58025 74.4945 9.05268 73.0811 11.0305C71.958 12.6017 71.2225 14.807 71.0139 16.9194C70.82 18.8878 70.8556 20.5607 71.1203 21.9702C70.8349 23.3815 70.0138 24.8573 69.0858 24.8573C67.8989 24.8573 67.2237 23.8078 67.2237 19.0108C67.2237 16.2124 67.3077 14.9954 67.3492 12.9714C67.3732 11.8058 67.4193 10.9104 67.4168 10.7073C67.408 10.0843 66.3308 9.77045 65.8294 9.65413C65.305 9.53257 64.8522 9.48837 64.5043 9.51406C64.0457 9.54804 63.723 9.95887 63.723 10.2653V10.9714C63.1 9.9923 62.098 9.311 61.4313 9.11346C59.6355 8.58025 57.7723 9.06042 56.3484 11.0305C55.4201 12.3149 54.6684 13.7389 54.2816 16.8912C54.1697 17.8021 54.1202 18.6555 54.1269 19.4525C53.7567 21.7169 52.1211 24.3266 50.7836 24.3266C50.001 24.3266 49.2553 22.8082 49.2553 19.5727C49.2553 15.2628 49.5222 9.12617 49.5675 8.53494C49.5675 8.53494 51.2575 8.50621 51.5846 8.50234C52.4278 8.49295 53.1911 8.51311 54.3142 8.45537C54.8772 8.42692 55.4198 6.4054 54.8385 6.15537C54.575 6.0421 52.7132 5.94319 51.9749 5.92745C51.3544 5.91363 49.6266 5.78544 49.6266 5.78544C49.6266 5.78544 49.7816 1.7123 49.8178 1.28214C49.8482 0.923259 49.384 0.738706 49.1183 0.626814C48.4712 0.353301 47.8924 0.22207 47.2064 0.0806167C46.2582 -0.114987 45.8284 0.0764725 45.7444 0.876292C45.6178 2.09052 45.5524 5.64703 45.5524 5.64703C44.8567 5.64703 42.4802 5.5111 41.7845 5.5111C41.138 5.5111 40.4401 8.29154 41.3342 8.3258C42.3625 8.36558 44.1547 8.40039 45.3427 8.43576C45.3427 8.43576 45.2896 14.6735 45.2896 16.5997C45.2898 16.8042 45.2905 17.002 45.2918 17.1932C44.6379 20.601 42.3349 22.4421 42.3349 22.4421C42.8294 20.1874 41.819 18.4941 39.9992 17.0608C39.3287 16.5329 38.0051 15.533 36.5242 14.4373C36.5242 14.4373 37.3818 13.5919 38.1426 11.8911C38.6814 10.686 38.7049 9.30768 37.3818 9.0035C35.1959 8.50068 33.3937 10.1061 32.8561 11.8201C32.4395 13.1479 32.6616 14.1328 33.4777 15.1562C33.5371 15.231 33.602 15.3076 33.6684 15.3844C33.1752 16.3353 32.4972 17.6159 31.9231 18.6088C30.3296 21.366 29.1258 23.5464 28.216 23.5464C27.4889 23.5464 27.4986 21.3323 27.4986 19.2594C27.4986 17.4725 27.6306 14.7857 27.7362 12.0044C27.771 11.0844 27.3107 10.5603 26.5399 10.0857C26.0713 9.79724 25.0715 9.23033 24.4924 9.23033C23.6254 9.23033 21.1246 9.3483 18.7619 16.1834C18.4641 17.0448 17.8789 18.6146 17.8789 18.6146L17.9295 10.3951C17.9295 10.2023 17.8267 10.0161 17.5916 9.88869C17.1935 9.67237 16.1301 9.23033 15.1844 9.23033C14.7341 9.23051 14.5089 9.43956 14.5089 9.85747L14.4266 22.717C14.4266 23.6942 14.452 24.8341 14.5487 25.3325C14.6448 25.8315 14.8009 26.2376 14.9938 26.4791C15.1869 26.7203 15.4098 26.9045 15.7775 26.9802C16.1199 27.0507 17.9941 27.2913 18.0916 26.5752C18.2082 25.7165 18.2129 24.7883 19.197 21.3254C20.7292 15.9339 22.7267 13.3037 23.6661 12.3694C23.8304 12.2064 24.0178 12.1964 24.0086 12.4636C23.9689 13.6455 23.8277 16.5994 23.7329 19.108C23.4785 25.8229 24.6999 27.0675 26.4457 27.0675C27.7812 27.0675 29.6637 25.7406 31.6816 22.3816C32.806 20.5097 33.9252 18.6347 35.0392 16.7566C35.6506 17.3227 36.3372 17.9319 37.0229 18.5828C38.617 20.0957 39.1403 21.5334 38.793 22.8971C38.5278 23.9395 37.5274 25.014 35.7473 23.9699C35.2285 23.6652 35.0069 23.4295 34.4853 23.0861C34.2052 22.9018 33.7772 22.8466 33.5205 23.04C32.8542 23.5423 32.4729 24.1816 32.2552 24.9728C32.0436 25.7428 32.8147 26.1497 33.6142 26.5059C34.3024 26.8123 35.7819 27.0899 36.7251 27.1214C40.4009 27.2443 43.3457 25.3466 45.3957 20.4513C45.7626 24.6791 47.3241 27.0714 50.0374 27.0714C51.8515 27.0714 53.6702 24.7266 54.4656 22.42C54.6938 23.3602 55.0319 24.178 55.4685 24.8695C57.559 28.182 61.6148 27.4692 63.652 24.6562C64.2819 23.787 64.3778 23.4748 64.3778 23.4748C64.6751 26.1307 66.814 27.0587 68.0385 27.0587C69.4102 27.0587 70.8261 26.4103 71.8187 24.1758C71.9348 24.4187 72.0621 24.6499 72.2008 24.8695C74.2914 28.182 78.3474 27.4692 80.3847 24.6562C80.4805 24.5243 80.5645 24.4046 80.6369 24.297L80.6966 26.0417L78.821 27.7621C75.6769 30.6437 73.2888 32.829 73.1131 35.3743C72.8893 38.6197 75.52 39.826 77.5131 39.984C79.6257 40.1517 81.4384 38.9836 82.5507 37.3489C83.5298 35.9097 84.1708 32.8127 84.1235 29.754C84.105 28.529 84.0738 26.9717 84.0498 25.3021C85.1535 24.0205 86.397 22.4004 87.5419 20.5046C88.7895 18.4383 90.1267 15.6634 90.8113 13.5038C90.8113 13.5038 91.9731 13.514 93.213 13.4328C93.6095 13.4068 93.7236 13.488 93.6501 13.7784C93.5617 14.1298 92.0836 19.8302 93.4326 23.6276C94.3557 26.2274 96.4369 27.0634 97.6707 27.0634C99.1154 27.0634 100.497 25.9727 101.237 24.3531C101.327 24.5335 101.42 24.7081 101.522 24.8698C103.613 28.1823 107.654 27.4648 109.706 24.6562C110.169 24.0224 110.432 23.4748 110.432 23.4748C110.872 26.2238 113.01 27.0728 114.234 27.0728C115.509 27.0728 116.72 26.5498 117.702 24.226C117.743 25.2494 117.808 26.0859 117.91 26.3495C117.972 26.5111 118.334 26.7133 118.598 26.8112C119.765 27.2438 120.954 27.0394 121.395 26.9504C121.7 26.8885 121.938 26.6437 121.97 26.0122C122.056 24.3531 122.003 21.5658 122.506 19.494C123.35 16.0176 124.138 14.6691 124.511 14.0016C124.721 13.6273 124.956 13.5656 124.965 13.9616C124.983 14.7628 125.022 17.1147 125.349 20.2753C125.59 22.5993 125.91 23.9732 126.157 24.4084C126.861 25.6516 127.73 25.7105 128.438 25.7105C128.888 25.7105 129.83 25.5861 129.745 24.7949C129.704 24.4092 129.776 22.0255 130.608 18.6005C131.152 16.3638 132.058 14.3431 132.385 13.6041C132.506 13.3316 132.562 13.5463 132.559 13.5883C132.491 15.1285 132.336 20.1667 132.964 22.9223C133.815 26.6551 136.275 27.0728 137.133 27.0728C138.963 27.0728 140.46 25.6804 140.965 22.0164C141.086 21.1345 140.906 20.454 140.367 20.454Z" fill="black"/>
</svg>
