<svg width="105" height="50" viewBox="0 0 105 50" fill="none" xmlns="http://www.w3.org/2000/svg">
<path d="M83.9205 45.1956C82.0526 45.1956 80.8115 44.2238 80.1972 42.2801C80.029 41.75 79.9448 41.1526 79.9448 40.4879C79.9448 39.739 80.05 38.9102 80.2604 38.0015C80.6811 36.2261 81.3121 34.7999 82.1535 33.7229C83.6681 31.7792 85.3678 30.8074 87.2525 30.8074C89.1542 30.8074 90.3952 31.7792 90.9758 33.7229C91.1357 34.2614 91.2156 34.8588 91.2156 35.5151C91.2156 36.264 91.1105 37.0928 90.9001 38.0015L89.802 42.7471C89.7179 43.1173 89.8778 43.3024 90.2817 43.3024H91.2535L91.2282 43.4287L89.8147 45.4481C88.0561 45.4481 87.1768 44.817 87.1768 43.5549C87.1768 43.3109 87.2105 43.0416 87.2778 42.7471L88.3758 38.0015C88.6114 36.9581 88.7292 36.1125 88.7292 35.4646C88.7292 35.1449 88.6998 34.863 88.6409 34.619C88.3296 33.5083 87.6985 32.953 86.7477 32.953C85.7969 32.953 84.9134 33.5083 84.0972 34.619C83.584 35.3174 83.1464 36.4449 82.7846 38.0015C82.549 39.0196 82.4312 39.8526 82.4312 40.5005C82.4312 40.8455 82.4649 41.14 82.5322 41.384C82.8351 42.4863 83.4577 43.0416 84.4001 43.05H85.372L85.3341 43.1762L83.9205 45.1956Z" fill="#292828"/>
<path d="M71.1768 45.4481L72.8933 38.0015C73.2971 36.2429 73.9282 34.8167 74.7864 33.7229C76.3094 31.7792 78.0049 30.8074 79.8728 30.8074H81.5767L81.5388 30.9336L80.1126 32.953H79.368C78.4172 32.953 77.5337 33.5083 76.7175 34.619C76.2127 35.309 75.7793 36.4365 75.4175 38.0015L73.9661 44.3121L71.303 45.4481H71.1768Z" fill="#292828"/>
<path d="M62.6044 38.0015C62.3688 39.0449 62.251 39.8905 62.251 40.5384C62.251 40.8665 62.2804 41.1484 62.3393 41.384C62.6591 42.4947 63.2901 43.05 64.2325 43.05C65.1749 43.05 66.0584 42.4947 66.883 41.384C67.4047 40.6772 67.8422 39.5497 68.1956 38.0015C68.4312 36.9666 68.549 36.1251 68.549 35.4772C68.549 35.1323 68.5153 34.8462 68.448 34.619C68.1619 33.5083 67.5309 32.953 66.5548 32.953C65.5704 32.953 64.6743 33.5167 63.8665 34.6442C63.3785 35.3258 62.9578 36.4449 62.6044 38.0015ZM60.0801 38.0141C60.484 36.2471 61.1151 34.8167 61.9733 33.7229C63.4963 31.7792 65.1917 30.8074 67.0597 30.8074C68.9276 30.8074 70.1687 31.7792 70.783 33.7229C70.9512 34.253 71.0354 34.8504 71.0354 35.5151C71.0354 36.2471 70.9302 37.0759 70.7198 38.0015C70.2907 39.8021 69.6597 41.2283 68.8267 42.2801C67.2869 44.2238 65.5872 45.1956 63.7277 45.1956C61.8934 45.1956 60.6523 44.228 60.0044 42.2927C59.8361 41.7795 59.752 41.2073 59.752 40.5762C59.752 39.8358 59.8613 38.9818 60.0801 38.0141Z" fill="#292828"/>
<path d="M51.2495 45.4481L52.966 38.0015C53.3699 36.2429 54.001 34.8167 54.8592 33.7229C56.3822 31.7792 58.0776 30.8074 59.9456 30.8074H61.6495L61.6116 30.9336L60.1854 32.953H59.4407C58.4899 32.953 57.6064 33.5083 56.7903 34.619C56.2854 35.309 55.8521 36.4365 55.4903 38.0015L54.0388 44.3121L51.3757 45.4481H51.2495Z" fill="#292828"/>
<path d="M52.4839 30.5549L50.7674 38.0015C50.3635 39.7601 49.7324 41.1863 48.8742 42.2801C47.3512 44.2238 45.6557 45.1956 43.7878 45.1956C41.8609 45.1956 40.6198 44.2238 40.0645 42.2801C39.9046 41.7164 39.8247 41.1021 39.8247 40.4374C39.8247 39.6801 39.9257 38.8682 40.1276 38.0015C40.6072 35.9568 41.8062 34.3581 43.7247 33.2054L40.651 33.2054L40.6762 33.0792L41.5517 31.0598L47.9528 31.0598L47.9276 31.186L46.514 33.2054C45.336 33.9122 44.482 34.6022 43.9519 35.2753C43.3208 36.0831 42.8875 36.9918 42.6519 38.0015C42.4163 39.0196 42.2985 39.8526 42.2985 40.5005C42.2985 40.8455 42.3321 41.14 42.3994 41.384C42.7024 42.4947 43.3334 43.05 44.2926 43.05C45.2434 43.05 46.1269 42.4947 46.9431 41.384C47.448 40.694 47.8813 39.5665 48.2431 38.0015L49.6946 31.6908L52.3576 30.5549H52.4839Z" fill="#292828"/>
<path fill-rule="evenodd" clip-rule="evenodd" d="M3.11994 50C2.32628 50 1.65576 49.8358 1.1084 49.5074C0.369467 49.0969 0 48.4537 0 47.578C0.164208 48.18 1.58734 48.9327 2.54522 48.9327C3.99572 48.9327 5.7199 47.9611 7.71776 46.018C8.45669 45.3064 9.25036 44.4443 10.0988 43.4317C10.9198 42.4465 11.7819 41.297 12.685 39.9834C13.2871 39.1076 13.8755 38.2455 14.4503 37.3971C15.025 36.5213 15.6134 35.6455 16.2155 34.7698C14.2176 31.7046 13.2187 28.8172 13.2187 26.1078C13.2187 24.5478 13.5745 23.2889 14.2861 22.331C15.025 21.3732 15.9692 20.8942 17.1186 20.8942C19.2533 20.8942 21.4838 22.3721 23.8101 25.3278C26.4374 22.6184 29.1195 20.3195 31.8563 18.4311C35.5236 15.8859 38.5477 14.6133 40.9288 14.6133C41.8866 14.6133 42.3656 14.8185 42.3656 15.2291C42.3656 15.3385 42.3245 15.4754 42.2424 15.6396C36.0846 26.6689 32.6363 34.154 31.8973 38.095C31.8426 38.4781 31.7879 38.8339 31.7331 39.1623C31.7058 39.4907 31.6921 39.7918 31.6921 40.0655C31.6921 41.7896 32.39 42.6517 33.7857 42.6517C35.2089 42.6517 38.1233 38.3828 40.6959 33.0187C40.8054 32.745 40.9559 32.5808 41.1475 32.5261H41.1885C41.298 32.5261 41.3527 32.6219 41.3527 32.8134C41.3527 32.9776 41.2843 33.1966 41.1475 33.4703C40.3812 35.0029 38.8488 37.8076 38.3835 38.7107C37.9456 39.6139 37.6446 40.1886 37.4804 40.4349C36.7141 41.6391 35.9478 42.5286 35.1815 43.1033C34.4152 43.678 33.6626 43.9654 32.9236 43.9654C31.9931 43.9654 31.1037 43.6096 30.2553 42.898C29.1879 41.9675 28.5995 40.6676 28.49 38.9981C27.7511 34.5098 26.1227 30.6783 23.6048 27.5036C22.7291 28.4341 21.7986 29.5151 20.8133 30.7467C19.8554 31.9782 18.8291 33.3603 17.7344 34.8929C18.9933 36.8908 20.4302 38.7381 22.0449 40.4349C23.6869 42.1317 25.5069 43.6643 27.5048 45.0327C27.6964 45.1422 27.7921 45.279 27.7921 45.4433C27.7921 45.6622 27.71 45.7717 27.5458 45.7717C27.4637 45.7717 27.3406 45.7306 27.1764 45.6485C26.4101 45.1833 25.6164 44.6222 24.7954 43.9654C23.9743 43.3359 23.1122 42.597 22.2091 41.7486C21.1965 40.8181 20.2523 39.8739 19.3765 38.916C18.5281 37.9308 17.7344 36.9318 16.9955 35.9192C15.1345 38.5465 13.6566 40.6128 12.5619 42.1181C11.4945 43.6233 10.8103 44.5675 10.5093 44.9506C8.26512 47.7422 6.33568 49.3432 4.72097 49.7537C4.20098 49.9179 3.6673 50 3.11994 50ZM29.4753 33.8666C29.1742 34.6329 28.9416 35.3719 28.7774 36.0834C27.8742 32.4435 26.4922 29.2278 24.6311 26.4362C25.4795 25.5878 26.3964 24.7531 27.3816 23.9321C28.3669 23.0837 29.4479 22.2489 30.6247 21.4279C33.5531 19.4027 35.8109 18.3901 37.3983 18.3901C37.9183 18.3901 38.1783 18.5679 38.1783 18.9237C38.1783 19.2248 38.0414 19.5669 37.7678 19.95C35.3867 23.4258 33.0194 27.2573 30.6658 31.4446C30.2005 32.2656 29.8037 33.073 29.4753 33.8666ZM19.9923 29.6793C19.0618 30.8835 18.0628 32.2109 16.9955 33.6614C15.9555 31.6361 15.4355 29.6793 15.4355 27.7909C15.4355 26.5868 15.6818 25.6015 16.1745 24.8352C16.6397 24.0963 17.2829 23.7268 18.1039 23.7268C19.4449 23.7268 20.9775 24.6436 22.7017 26.4773C21.8533 27.4078 20.9502 28.4751 19.9923 29.6793Z" fill="#292828"/>
<path d="M100.403 33.7377L100.403 42.7769L98.5435 42.5168L98.5435 33.4775L100.403 33.7377Z" fill="#292828"/>
<path d="M100.403 33.7377L100.403 42.7769L98.5435 42.5168L98.5435 33.4775L100.403 33.7377Z" fill="#292828"/>
<path d="M103.863 39.0574L94.8237 39.0574L95.0838 37.1975L104.123 37.1975L103.863 39.0574Z" fill="#292828"/>
<path d="M103.863 39.0574L94.8237 39.0574L95.0838 37.1975L104.123 37.1975L103.863 39.0574Z" fill="#292828"/>
<path d="M63.108 1.85987C80.9002 1.85987 95.6554 13.0025 98.39 30.0236L100.273 30.2893C97.5208 12.2367 81.9296 0 63.108 0C50.416 0 39.193 6.28916 32.3853 15.9211L33.7433 14.7461C40.1141 7.79197 52.4169 1.85987 63.108 1.85987Z" fill="url(#paint0_linear_1410_149)"/>
<defs>
<linearGradient id="paint0_linear_1410_149" x1="31.3225" y1="17.5359" x2="94.2924" y2="15.1447" gradientUnits="userSpaceOnUse">
<stop stop-color="#292828" stop-opacity="0"/>
<stop offset="1" stop-color="#292828"/>
</linearGradient>
</defs>
</svg>
